<svg id="Capa_1" data-name="Capa 1" xmlns="http://www.w3.org/2000/svg" viewBox="0 0 2122 2122"><defs><style>.cls-1{fill:#5ea44d;}.cls-2{fill:#248e49;}.cls-3{fill:#fffbd8;}.cls-4{fill:#e5deb1;}.cls-5{fill:#ec6463;}.cls-6{fill:#e94b4c;}.cls-7{fill:#cb3540;}.cls-8{fill:#332021;}.cls-9{fill:#482f32;}.cls-10{fill:#e83a4a;}</style></defs><path class="cls-1" d="M1814.15,1548.83v0c7.78,45.79-253.48,174.08-639.81,196.18,55,36.47,113.49,64.53,174.5,86l17.21-2.06c273.9-34.49,467.29-108.21,481.09-156.52C1850,1662.55,1826.67,1587.23,1814.15,1548.83Z"/><path class="cls-2" d="M1174.34,1745q-40.52,2.31-82.82,3l-4.36.07c-9,.12-18.06.21-27.18.21q-31.51,0-62.05-.85-19.95-.56-39.47-1.44c-6.89-.31-13.76-.65-20.57-1q-19.67-1.08-38.85-2.49-9.6-.71-19.07-1.48-18.94-1.56-37.39-3.42c-54.4-5.47-105.48-12.84-152.86-21.59l-5-.94c-130.44-24.49-232.27-59.48-296.68-94.32-2.4-1.3-4.75-2.59-7-3.89q-3.2-1.8-6.24-3.6-7.2-4.24-13.62-8.45-3.86-2.52-7.42-5a204.73,204.73,0,0,1-18.2-14.19c-17-15-25.84-29.34-25.72-41.89h0c-.83,2.06-1.69,4.22-2.57,6.44-.34.86-.68,1.74-1,2.62-3,7.59-6.08,15.93-9.18,24.47l-.84,2.3c-1.63,4.53-3.25,9.09-4.82,13.61-9.43,27-17.33,52.5-17.39,58.57-.43,42.58,134.74,106.65,337.52,149.9q44.91,9.59,94,17.67,9.59,1.56,19.31,3,15,2.31,30.29,4.45,9.87,1.37,19.85,2.68,9.83,1.27,19.77,2.47A2220.54,2220.54,0,0,0,1060,1848h.08q18.66,0,37.08-.29h1.31q18.46-.3,36.68-.85l.82,0c74.59-2.3,146-7.89,212.87-15.81C1287.83,1809.56,1229.31,1781.5,1174.34,1745Z"/><path class="cls-3" d="M1060,1626.29c-9,0-17.94-.1-26.84-.24a851.65,851.65,0,0,0,75.88,70.13,715.08,715.08,0,0,0,65.32,48.8l0,0,3.65-.22c384.32-22.69,643.92-150.32,636.16-196v0c-3.35-19.72-15.84-63.24-39.72-123.79C1777.51,1459.77,1486.28,1626.29,1060,1626.29Z"/><path class="cls-4" d="M1174.36,1745a715.08,715.08,0,0,1-65.32-48.8,851.65,851.65,0,0,1-75.88-70.13c-340.88-5.57-591.88-115.68-665-169.53l-.23-.17c-1.27-.94-2.5-1.87-3.66-2.77l-.5-.4c-1.05-.83-2.08-1.64-3-2.44-.23-.18-.43-.36-.65-.55-.87-.73-1.73-1.46-2.52-2.17-.26-.22-.48-.44-.73-.66-.71-.65-1.42-1.3-2.06-1.92-.28-.26-.51-.51-.77-.77-.57-.57-1.14-1.13-1.64-1.68-.27-.29-.5-.57-.76-.86-.43-.48-.87-1-1.25-1.43s-.46-.62-.7-.92-.64-.83-.91-1.23-.39-.63-.59-1-.45-.7-.62-1-.29-.64-.43-1-.27-.58-.36-.85a7.53,7.53,0,0,1-.23-1c0-.22-.13-.45-.15-.66a4.71,4.71,0,0,1,0-1.25c0-.06,0-.13,0-.19-20.58,48.76-36.56,99.67-36.68,112-.12,12.56,8.72,26.85,25.72,41.9a204.73,204.73,0,0,0,18.2,14.19q3.57,2.51,7.42,5,6.42,4.22,13.62,8.45,3,1.8,6.24,3.6c2.29,1.3,4.64,2.59,7,3.89,64.41,34.84,166.24,69.83,296.68,94.32l5,.94c47.38,8.75,98.46,16.12,152.86,21.59Q861,1739.47,880,1741q9.46.78,19.07,1.48,19.19,1.41,38.85,2.49c6.81.37,13.68.71,20.57,1q19.51.88,39.47,1.44,30.52.84,62.05.85,13.68,0,27.18-.21l4.36-.07Q1133.79,1747.34,1174.36,1745Z"/><path class="cls-5" d="M1060,273.33c-49.38,0-128.19,89.4-215.76,218.64l-6.74,10C822.3,567,809.84,633.2,800.82,699.66c5.85-6.47,12.76-11.79,19-13.68,11-11.12,23.41-6.09,27.39,17.2,3.28,19.16,15.44,82.16,0,132.53-7.39,24-22,42.7-38.83,49.58a66.71,66.71,0,0,1-23.23,10.34c-1.61,74.54,2.16,148.42,12.4,220.48,0-.23,0-.46,0-.69,3.23-49.29,29.26-98,35.91-115.83,4.26-11.42,12.67-23.71,21.06-28.29,8.45-13.06,21.64-10.65,30.29,11.3,7.13,18.08,31.9,77.27,27,129.74-2.32,25-12.82,46.3-27.87,56.47-10,10.57-22.64,17.37-34.29,18.88-21.79,2.83-36.48-8.09-44.64-25.35,14.84,80.85,38.32,159,72.06,232.79,9.14-33.6,24-62.52,28.76-75.37,4.26-11.42,12.67-23.71,21.06-28.29,8.46-13,21.65-10.65,30.3,11.3,7.12,18.09,31.89,77.27,27,129.74-2.32,25-12.82,46.3-27.87,56.48a67.13,67.13,0,0,1-19.93,14.51A822.4,822.4,0,0,0,1033.11,1626l.05.08,8.93.13q8.91.1,17.91.11c426.28,0,717.51-166.52,714.43-201.25C1770.28,1378.33,1231.44,273.33,1060,273.33Z"/><path class="cls-6" d="M936.37,1503.5a49.14,49.14,0,0,1-14.36,4.37c-38.29,5-54.73-32.48-52.13-72.27a207.32,207.32,0,0,1,7.15-40.47c-33.74-73.77-57.22-151.94-72.06-232.79-6.09-12.9-8.53-29.33-7.51-46.23-10.24-72.06-14-145.94-12.4-220.48a48.68,48.68,0,0,1-14.19,1.14c-38.5-3-46.94-43-36.26-81.4,13.23-47.6,48.67-90,58.82-106a72.2,72.2,0,0,1,7.39-9.66C809.84,633.2,822.3,567,837.5,502c-137.92,205.67-296,506-394.85,710.29a.61.61,0,0,1-.07.14q-7.14,14.79-13.87,28.88c-.09.19-.19.38-.28.58q-6.66,14-12.89,27.19l-.23.5q-2.91,6.18-5.72,12.19c-.18.39-.37.79-.55,1.19q-5.76,12.33-11.07,23.88l-.77,1.68c-1.71,3.71-3.38,7.37-5,11l-.05.1q-2.53,5.61-5,11c-.2.43-.38.85-.58,1.28q-2.07,4.6-4.05,9c-.25.55-.5,1.11-.74,1.66-1.49,3.32-2.94,6.59-4.34,9.77l-.09.21q-2,4.52-3.85,8.81l-.8,1.83c-1.18,2.72-2.33,5.39-3.44,8-.09.2-.18.4-.26.6-1.19,2.77-2.32,5.45-3.43,8.07l-.65,1.57q-1.36,3.23-2.62,6.28c-.2.48-.41,1-.6,1.45-1,2.39-1.94,4.71-2.83,6.94l-.35.87q-1.14,2.85-2.19,5.52c-.21.52-.41,1-.6,1.54-.75,1.91-1.46,3.76-2.12,5.51l-.1.24c-.68,1.83-1.31,3.55-1.91,5.2-.15.41-.29.8-.43,1.21-.47,1.3-.91,2.55-1.31,3.74l-.31.92q-.72,2.12-1.29,4c-.07.24-.13.44-.19.67-.3,1-.57,1.9-.8,2.76-.07.28-.15.56-.22.82-.25,1-.47,1.91-.63,2.71,0,.06,0,.13,0,.19a4.71,4.71,0,0,0,0,1.25c0,.21.11.44.15.66a7.53,7.53,0,0,0,.23,1c.09.27.24.56.36.85s.25.63.43,1,.41.69.62,1,.36.62.59,1,.6.82.91,1.23.44.6.7.92.82,1,1.25,1.43c.26.29.49.57.76.86.51.55,1.07,1.11,1.64,1.68.26.26.49.51.77.77.64.62,1.35,1.27,2.06,1.92.25.22.47.44.73.66.79.71,1.65,1.44,2.52,2.17.22.19.42.37.65.55,1,.8,2,1.61,3,2.44l.5.4c1.16.9,2.39,1.83,3.66,2.77l.23.17c73.13,53.83,324.13,163.86,664.91,169.45A822.4,822.4,0,0,1,936.37,1503.5Z"/><path class="cls-7" d="M849.61,1187.69c11.65-1.51,24.24-8.31,34.29-18.88a36.34,36.34,0,0,1-15.76,6.14c-38.28,5-54.73-32.48-52.13-72.27,3.23-49.3,28.11-106.11,34.76-123.94a37.65,37.65,0,0,1,3.68-7.44c-8.39,4.58-16.8,16.87-21.06,28.29-6.65,17.83-32.68,66.54-35.91,115.83,0,.23,0,.46,0,.69-1,16.9,1.42,33.33,7.51,46.23C813.13,1179.6,827.82,1190.52,849.61,1187.69Z"/><path class="cls-8" d="M884.74,982.6c-8.65-22-21.84-24.36-30.29-11.3a37.65,37.65,0,0,0-3.68,7.44c-6.65,17.83-31.53,74.64-34.76,123.94-2.6,39.79,13.85,77.24,52.13,72.27a36.34,36.34,0,0,0,15.76-6.14c15.05-10.17,25.55-31.45,27.87-56.47C916.64,1059.87,891.87,1000.68,884.74,982.6Z"/><path class="cls-9" d="M857.85,1153.8c7.46,5.09,17.79,4.14,25.49-.39,15-8.84,21-28.12,22.45-43.78,3.32-35.46-11.2-90.93-15.83-101.93s-14.68-7.15-15.64,3.28c-1,10.82-.51,25.46-1.08,36.29-1.35,25.28-7.68,49-17.13,72.32C851.71,1130.45,846.1,1145.8,857.85,1153.8Z"/><path class="cls-7" d="M956.3,1489a36.54,36.54,0,0,1-15.76,6.14c-38.28,5-54.73-32.48-52.12-72.27,3.23-49.3,28.1-106.12,34.75-123.95a37.93,37.93,0,0,1,3.68-7.44c-8.39,4.58-16.8,16.87-21.06,28.29-4.79,12.85-19.62,41.77-28.76,75.37a207.32,207.32,0,0,0-7.15,40.47c-2.6,39.79,13.84,77.24,52.13,72.27a49.14,49.14,0,0,0,14.36-4.37A67.13,67.13,0,0,0,956.3,1489Z"/><path class="cls-8" d="M957.15,1302.77c-8.65-22-21.84-24.35-30.3-11.3a37.93,37.93,0,0,0-3.68,7.44c-6.65,17.83-31.52,74.65-34.75,123.95-2.61,39.79,13.84,77.24,52.12,72.27A36.54,36.54,0,0,0,956.3,1489c15.05-10.18,25.55-31.45,27.87-56.48C989,1380,964.27,1320.86,957.15,1302.77Z"/><path class="cls-9" d="M930.25,1474c7.46,5.08,17.8,4.13,25.49-.4,15-8.83,21-28.12,22.45-43.77,3.32-35.47-11.2-90.93-15.83-101.94s-14.67-7.14-15.64,3.28c-1,10.82-.5,25.46-1.08,36.29-1.35,25.28-7.67,49-17.13,72.33C924.11,1450.62,918.5,1466,930.25,1474Z"/><path class="cls-10" d="M1129.52,1215.11c3.23-49.3,28.1-106.12,34.75-123.95a37.93,37.93,0,0,1,3.68-7.44c-8.38,4.59-16.8,16.88-21.06,28.29-6.65,17.83-32.68,66.54-35.91,115.84-2.6,39.79,13.85,77.24,52.13,72.27,11.65-1.51,24.24-8.31,34.29-18.88a36.41,36.41,0,0,1-15.76,6.14C1143.36,1292.35,1126.91,1254.9,1129.52,1215.11Z"/><path class="cls-8" d="M1198.25,1095c-8.65-22-21.84-24.36-30.3-11.31a37.93,37.93,0,0,0-3.68,7.44c-6.65,17.83-31.52,74.65-34.75,123.95-2.61,39.79,13.84,77.24,52.12,72.27a36.41,36.41,0,0,0,15.76-6.14c15-10.18,25.55-31.45,27.87-56.48C1230.14,1172.29,1205.37,1113.11,1198.25,1095Z"/><path class="cls-9" d="M1187.82,1123.41c-1,10.82-.5,25.45-1.08,36.28-1.34,25.29-7.67,49-17.13,72.33-4.4,10.86-10,26.21,1.74,34.21,7.46,5.09,17.8,4.13,25.49-.4,15-8.83,21-28.11,22.45-43.77,3.32-35.47-11.2-90.93-15.83-101.94S1188.79,1113,1187.82,1123.41Z"/><path class="cls-10" d="M1488.92,1474.71c-33,20-63.19-7.53-76.93-45-17-46.38-17.29-108.41-18.44-127.4a38.55,38.55,0,0,1,.36-8.29c-5.81,7.59-8.53,22.23-7.8,34.39,1.15,19-2.92,74.07,14.1,120.46,13.73,37.43,43.94,65,76.93,44.95,10-6.1,18.8-17.42,23.7-31.15A36.37,36.37,0,0,1,1488.92,1474.71Z"/><path class="cls-8" d="M1503.45,1399.78c-16.8-49.94-63.43-94-77.27-107.66-16.8-16.57-29.83-13.42-32.27,1.94a38.55,38.55,0,0,0-.36,8.29c1.15,19,1.42,81,18.44,127.4,13.74,37.43,44,65,76.93,45a36.37,36.37,0,0,0,11.92-12C1510.48,1447.31,1511.46,1423.61,1503.45,1399.78Z"/><path class="cls-9" d="M1496.88,1399.74c-11.33-33.78-47.07-78.6-55.76-86.79s-16.31-.58-13,9.34c3.47,10.3,9.85,23.48,13.71,33.61,9,23.66,12.82,47.87,13.64,73.07.38,11.7,1.46,28,15.45,30.57,8.88,1.63,17.94-3.43,23.14-10.69C1504.24,1434.7,1501.89,1414.65,1496.88,1399.74Z"/><path class="cls-10" d="M1517.79,1153.24c-33,20-63.19-7.53-76.93-45-17-46.38-17.29-108.41-18.44-127.4a37.92,37.92,0,0,1,.36-8.29c-5.81,7.58-8.53,22.23-7.8,34.39,1.15,19-2.92,74.07,14.1,120.46,13.73,37.43,43.94,65,76.93,45,10-6.1,18.8-17.42,23.7-31.15A36.37,36.37,0,0,1,1517.79,1153.24Z"/><path class="cls-8" d="M1532.32,1078.31c-16.8-49.94-63.43-94-77.27-107.66-16.8-16.57-29.83-13.43-32.27,1.94a37.92,37.92,0,0,0-.36,8.29c1.15,19,1.42,81,18.44,127.4,13.74,37.43,44,65,76.93,45a36.37,36.37,0,0,0,11.92-12C1539.35,1125.84,1540.33,1102.14,1532.32,1078.31Z"/><path class="cls-9" d="M1525.75,1078.27c-11.33-33.78-47.07-78.6-55.76-86.79s-16.31-.59-13,9.34c3.46,10.3,9.85,23.48,13.71,33.61,9,23.66,12.82,47.87,13.63,73.07.39,11.7,1.47,28,15.45,30.57,8.89,1.63,18-3.43,23.15-10.69C1533.1,1113.23,1530.75,1093.17,1525.75,1078.27Z"/><path class="cls-10" d="M1306,804.56c-33,20.05-63.2-7.52-76.93-45-17-46.38-17.3-108.4-18.44-127.39a38.65,38.65,0,0,1,.35-8.3c-5.81,7.59-8.52,22.23-7.79,34.4,1.14,19-2.92,74.07,14.09,120.45,13.74,37.43,44,65,76.94,45,10-6.11,18.8-17.43,23.7-31.16A36.47,36.47,0,0,1,1306,804.56Z"/><path class="cls-8" d="M1320.51,729.64c-16.81-49.95-63.43-94-77.27-107.67-16.8-16.57-29.83-13.42-32.28,1.94a38.65,38.65,0,0,0-.35,8.3c1.14,19,1.42,81,18.44,127.39,13.73,37.44,43.94,65,76.93,45a36.47,36.47,0,0,0,11.92-12C1327.54,777.16,1328.52,753.46,1320.51,729.64Z"/><path class="cls-9" d="M1245.21,652.14c3.46,10.3,9.85,23.48,13.71,33.62,9,23.66,12.81,47.87,13.63,73.06.38,11.71,1.47,28,15.45,30.57,8.89,1.63,18-3.43,23.15-10.69,10.14-14.15,7.79-34.2,2.79-49.11-11.33-33.77-47.07-78.6-55.77-86.78S1241.86,642.22,1245.21,652.14Z"/><path class="cls-10" d="M1089.11,970.81c-38.28,5-54.73-32.48-52.13-72.27,3.23-49.3,28.11-106.12,34.75-123.95a38.49,38.49,0,0,1,3.69-7.44c-8.39,4.59-16.8,16.88-21.06,28.29-6.65,17.83-32.68,66.54-35.91,115.84-2.61,39.79,13.84,77.24,52.13,72.27,11.65-1.52,24.24-8.32,34.29-18.88A36.59,36.59,0,0,1,1089.11,970.81Z"/><path class="cls-8" d="M1105.71,778.45c-8.65-22-21.84-24.35-30.29-11.3a38.49,38.49,0,0,0-3.69,7.44c-6.64,17.83-31.52,74.65-34.75,123.95-2.6,39.79,13.85,77.24,52.13,72.27a36.59,36.59,0,0,0,15.76-6.14c15.05-10.18,25.55-31.45,27.87-56.48C1137.61,855.72,1112.84,796.54,1105.71,778.45Z"/><path class="cls-9" d="M1078.82,949.66c7.46,5.08,17.79,4.13,25.49-.4,15-8.83,21-28.12,22.45-43.77,3.32-35.47-11.2-90.93-15.83-101.94s-14.68-7.14-15.64,3.28c-1,10.82-.51,25.46-1.08,36.29-1.35,25.29-7.68,49-17.13,72.33C1072.68,926.3,1067.07,941.66,1078.82,949.66Z"/><path class="cls-10" d="M1031.52,631.41c11.65-1.52,24.24-8.32,34.29-18.88a36.59,36.59,0,0,1-15.76,6.14c-38.28,5-54.73-32.48-52.13-72.27,3.23-49.3,28.11-106.12,34.76-123.95a37.93,37.93,0,0,1,3.68-7.44c-8.39,4.58-16.8,16.87-21.06,28.29-6.65,17.83-32.68,66.54-35.91,115.84C976.78,598.93,993.23,636.38,1031.52,631.41Z"/><path class="cls-8" d="M1066.65,426.31c-8.65-21.95-21.84-24.35-30.29-11.3a37.93,37.93,0,0,0-3.68,7.44c-6.65,17.83-31.53,74.65-34.76,124-2.6,39.79,13.85,77.24,52.13,72.27a36.59,36.59,0,0,0,15.76-6.14c15-10.18,25.55-31.45,27.87-56.48C1098.55,503.58,1073.78,444.4,1066.65,426.31Z"/><path class="cls-9" d="M1056.23,454.69c-1,10.82-.51,25.46-1.08,36.29-1.35,25.28-7.68,49-17.13,72.33-4.4,10.85-10,26.2,1.74,34.21,7.46,5.08,17.79,4.13,25.49-.4,15-8.83,21-28.12,22.45-43.77,3.32-35.47-11.2-90.93-15.83-101.94S1057.19,444.27,1056.23,454.69Z"/><path class="cls-7" d="M578.71,1335.72c-38.49-3-46.94-43-36.25-81.4,13.23-47.6,49.19-98.13,59.34-114.23a38.55,38.55,0,0,1,5.08-6.48c-9.14,2.79-19.86,13.05-26.35,23.34-10.15,16.09-45.59,58.46-58.82,106.06-10.68,38.41-2.24,78.44,36.26,81.39,11.71.9,25.43-3.18,37.42-11.48A36.46,36.46,0,0,1,578.71,1335.72Z"/><path class="cls-8" d="M634.27,1150.82c-4-23.3-16.44-28.33-27.39-17.21a38.55,38.55,0,0,0-5.08,6.48c-10.15,16.1-46.11,66.63-59.34,114.23-10.69,38.42-2.24,78.44,36.25,81.4a36.46,36.46,0,0,0,16.68-2.8c16.81-6.88,31.44-25.56,38.83-49.58C649.71,1233,637.55,1170,634.27,1150.82Z"/><path class="cls-9" d="M618.27,1176.47c-3.19,10.38-5.7,24.81-8.47,35.3-6.49,24.47-17.52,46.36-31.55,67.29-6.53,9.74-15.16,23.62-5.29,33.85,6.26,6.5,16.57,7.68,25,4.82,16.5-5.58,26.29-23.23,30.92-38.26,10.5-34,7.62-91.3,5.34-103S621.34,1166.46,618.27,1176.47Z"/><path class="cls-7" d="M808.29,885.29a36.32,36.32,0,0,1-16.68,2.79c-38.49-3-46.94-43-36.26-81.39,13.24-47.6,49.2-98.14,59.35-114.23a38,38,0,0,1,5.08-6.48c-6.2,1.89-13.11,7.21-19,13.68a72.2,72.2,0,0,0-7.39,9.66c-10.15,16.09-45.59,58.45-58.82,106-10.68,38.42-2.24,78.44,36.26,81.4a48.68,48.68,0,0,0,14.19-1.14A66.71,66.71,0,0,0,808.29,885.29Z"/><path class="cls-8" d="M847.17,703.18c-4-23.29-16.44-28.32-27.39-17.2a38,38,0,0,0-5.08,6.48c-10.15,16.09-46.11,66.63-59.35,114.23-10.68,38.42-2.23,78.44,36.26,81.39a36.32,36.32,0,0,0,16.68-2.79c16.81-6.88,31.44-25.56,38.83-49.58C862.61,785.34,850.45,722.34,847.17,703.18Z"/><path class="cls-9" d="M831.17,728.84c-3.19,10.38-5.7,24.81-8.48,35.3-6.48,24.47-17.51,46.35-31.54,67.29-6.53,9.73-15.16,23.61-5.29,33.85,6.26,6.5,16.57,7.68,25,4.82,16.5-5.58,26.29-23.24,30.92-38.26,10.5-34,7.62-91.3,5.34-103S834.24,718.83,831.17,728.84Z"/></svg>